<svg width="25" height="25" viewBox="0 0 25 25" fill="none" xmlns="http://www.w3.org/2000/svg">
<circle cx="12" cy="12" r="12" fill="white"/>
<path d="M16.8 10.25L12 13.0625L7.2 10.25V9.125L12 11.9375L16.8 9.125V10.25ZM16.8 8H7.2C6.534 8 6 8.50063 6 9.125V15.875C6 16.1734 6.12643 16.4595 6.35147 16.6705C6.57652 16.8815 6.88174 17 7.2 17H16.8C17.1183 17 17.4235 16.8815 17.6485 16.6705C17.8736 16.4595 18 16.1734 18 15.875V9.125C18 8.82663 17.8736 8.54048 17.6485 8.3295C17.4235 8.11853 17.1183 8 16.8 8Z" fill="#232848"/>
</svg>
