<svg width="25" height="25" viewBox="0 0 25 25" fill="none" xmlns="http://www.w3.org/2000/svg">
<g clip-path="url(#clip0_101_253)">
<path d="M24.4054 12.2027C24.4054 5.46262 18.9428 0 12.2027 0C5.46262 0 0 5.46262 0 12.2027C0 18.9428 5.46262 24.4054 12.2027 24.4054C12.2742 24.4054 12.3457 24.4054 12.4172 24.4006V14.9054H9.79553V11.85H12.4172V9.60009C12.4172 6.99272 14.0093 5.57225 16.3354 5.57225C17.4508 5.57225 18.4089 5.65328 18.6854 5.69142V8.41796H17.0838C15.8206 8.41796 15.5727 9.01856 15.5727 9.9004V11.8452H18.5996L18.204 14.9006H15.5727V23.9335C20.6731 22.4701 24.4054 17.775 24.4054 12.2027Z" fill="white"/>
</g>
<defs>
<clipPath id="clip0_101_253">
<rect width="24.4054" height="24.4054" fill="white"/>
</clipPath>
</defs>
</svg>
