<svg class="ok" width="25" height="25" viewBox="0 0 25 25" fill="none" xmlns="http://www.w3.org/2000/svg">
<g clip-path="url(#clip0_101_248)">
<path d="M12.2139 10.1135C13.3792 10.1092 14.3072 9.17319 14.3029 8.00548C14.2987 6.83727 13.3687 5.90774 12.203 5.90674C11.0275 5.90549 10.0887 6.85225 10.0977 8.03095C10.1065 9.19442 11.045 10.1177 12.2139 10.1135Z" fill="white"/>
<path d="M12.2027 0C5.46332 0 0 5.46356 0 12.2027C0 18.9418 5.46332 24.4054 12.2027 24.4054C18.9421 24.4054 24.4054 18.9418 24.4054 12.2027C24.4054 5.46356 18.9421 0 12.2027 0ZM12.2202 3.71087C14.5971 3.71736 16.5048 5.66155 16.4926 8.06464C16.4806 10.4123 14.5416 12.3151 12.1687 12.3071C9.82009 12.2991 7.89387 10.3519 7.90785 7.99948C7.92108 5.62136 9.8483 3.70438 12.2202 3.71087ZM17.0343 13.9958C16.5088 14.5354 15.8761 14.9259 15.1735 15.1983C14.5094 15.4557 13.7816 15.5853 13.0611 15.6716C13.1702 15.79 13.2214 15.8482 13.2893 15.9161C14.267 16.899 15.2494 17.877 16.2239 18.8627C16.556 19.1988 16.6251 19.6152 16.4424 20.0054C16.2429 20.4324 15.7952 20.713 15.3561 20.6828C15.0779 20.6636 14.861 20.5255 14.6685 20.3315C13.9304 19.589 13.1784 18.8597 12.4559 18.1032C12.2449 17.883 12.144 17.9249 11.958 18.1162C11.2158 18.8807 10.4612 19.6329 9.70249 20.3812C9.36169 20.7173 8.95622 20.7782 8.56074 20.5859C8.14054 20.3827 7.8734 19.9535 7.89387 19.5218C7.90835 19.2307 8.05166 19.0075 8.2519 18.8083C9.21988 17.8423 10.1849 16.8733 11.1501 15.9051C11.2143 15.8409 11.2737 15.7728 11.3668 15.6729C10.0503 15.5353 8.86309 15.2112 7.84668 14.4165C7.72035 14.3177 7.59027 14.2223 7.47542 14.1114C7.03025 13.6843 6.98556 13.1946 7.33735 12.6908C7.6387 12.2594 8.14404 12.144 8.6696 12.392C8.77146 12.4396 8.86834 12.5001 8.96122 12.564C10.8552 13.8655 13.4573 13.9012 15.3588 12.6222C15.5471 12.4783 15.7485 12.36 15.982 12.3003C16.4354 12.1835 16.8588 12.3505 17.102 12.7475C17.3804 13.2011 17.3771 13.6436 17.0343 13.9958Z" fill="white"/>
</g>
<defs>
<clipPath id="clip0_101_248">
<rect width="24.4054" height="24.4054" fill="white"/>
</clipPath>
</defs>
</svg>
