<svg class="vk" width="25" height="25" viewBox="0 0 25 25" fill="none" xmlns="http://www.w3.org/2000/svg">
<g clip-path="url(#clip0_101_255)">
<path d="M12.2027 0C5.46356 0 0 5.46332 0 12.2027C0 18.9421 5.46356 24.4054 12.2027 24.4054C18.9418 24.4054 24.4054 18.9421 24.4054 12.2027C24.4054 5.46332 18.9418 0 12.2027 0ZM18.3926 13.5225C18.9613 14.078 19.563 14.6008 20.0736 15.2137C20.2998 15.4849 20.513 15.7653 20.6753 16.0806C20.907 16.5303 20.6978 17.0234 20.2953 17.0501L17.7953 17.0496C17.1497 17.103 16.6359 16.8426 16.2027 16.4012C15.8569 16.0494 15.5361 15.6736 15.203 15.3099C15.0669 15.1606 14.9236 15.02 14.7528 14.9094C14.412 14.6877 14.1159 14.7556 13.9207 15.1116C13.7217 15.4739 13.6763 15.8754 13.6573 16.2786C13.6301 16.8681 13.4523 17.0221 12.8608 17.0498C11.597 17.109 10.3978 16.9173 9.28329 16.2801C8.30008 15.7181 7.53909 14.9249 6.87596 14.0268C5.58466 12.2761 4.59571 10.3546 3.70712 8.37798C3.50714 7.93282 3.65345 7.69463 4.14455 7.68539C4.96048 7.66966 5.7764 7.67166 6.59233 7.68464C6.92439 7.68989 7.14411 7.87989 7.27169 8.19323C7.71261 9.27805 8.25315 10.3102 8.93051 11.2674C9.11102 11.5223 9.29528 11.7765 9.55768 11.9565C9.8473 12.1553 10.068 12.0896 10.2046 11.7663C10.292 11.5608 10.3297 11.3411 10.3486 11.1209C10.4136 10.3666 10.4213 9.61261 10.3089 8.86135C10.239 8.39122 9.97463 8.08761 9.506 7.99873C9.26731 7.95354 9.30227 7.86516 9.41836 7.72884C9.61985 7.49315 9.8086 7.34734 10.1859 7.34734L13.0104 7.34684C13.4556 7.43422 13.5554 7.63396 13.6158 8.08237L13.6183 11.2212C13.6131 11.3948 13.7055 11.9091 14.0171 12.0227C14.2667 12.1051 14.4315 11.9048 14.5808 11.7468C15.2582 11.028 15.7408 10.1796 16.173 9.30152C16.3637 8.91428 16.5283 8.51355 16.6881 8.11208C16.8069 7.81522 16.9917 7.66916 17.3267 7.67416L20.0466 7.6774C20.1268 7.6774 20.2082 7.67815 20.2876 7.69188C20.746 7.77028 20.8716 7.96752 20.7297 8.41468C20.5065 9.11726 20.0729 9.70249 19.6489 10.2892C19.1945 10.9174 18.7099 11.5236 18.26 12.1545C17.8465 12.7313 17.8792 13.0216 18.3926 13.5225Z" fill="white"/>
</g>
<defs>
<clipPath id="clip0_101_255">
<rect width="24.4054" height="24.4054" fill="white"/>
</clipPath>
</defs>
</svg>
