<svg class="brevkafi-adaptive" width="31" height="32" viewBox="0 0 31 32" fill="none" xmlns="http://www.w3.org/2000/svg">
<path d="M15.744 31.1538C23.8868 31.1538 30.4879 24.4037 30.4879 16.0769C30.4879 7.75017 23.8868 1 15.744 1C7.6011 1 1 7.75017 1 16.0769C1 24.4037 7.6011 31.1538 15.744 31.1538Z" stroke="#C3CACC"/>
<path d="M15.7436 30.0781C23.3048 30.0781 29.4344 23.8101 29.4344 16.0781C29.4344 8.34614 23.3048 2.07812 15.7436 2.07812C8.18232 2.07812 2.05273 8.34614 2.05273 16.0781C2.05273 23.8101 8.18232 30.0781 15.7436 30.0781Z" stroke="#C3CACC"/>
<path d="M20.4824 10.155H24.1684V24.6935H7.84473V10.155H11.2674H11.3472L11.4134 10.1098L12.1691 9.59467L13.9371 9.07812H18.0701L19.5759 9.59139L20.3364 10.1098L20.4027 10.155H20.4824Z" stroke="#C3CACC"/>
<path d="M11.6914 7.46201L16.0065 4.81445L20.3217 7.46201H11.6914Z" stroke="#C3CACC"/>
<path d="M20.7458 7.73047H11.2676V8.26893H20.7458V7.73047Z" fill="#C3CACC"/>
<path d="M23.9055 23.3457H8.1084V24.4226H23.9055V23.3457Z" fill="#C3CACC"/>
<path fill-rule="evenodd" clip-rule="evenodd" d="M11.7944 14.1914C11.2127 14.1914 10.7412 14.6735 10.7412 15.2683V20.1145H12.8475V15.2683C12.8475 14.6735 12.376 14.1914 11.7944 14.1914Z" fill="#C3CACC"/>
<path fill-rule="evenodd" clip-rule="evenodd" d="M16.0072 14.1914C15.4256 14.1914 14.9541 14.6735 14.9541 15.2683V20.1145H17.0604V15.2683C17.0604 14.6735 16.5889 14.1914 16.0072 14.1914Z" fill="#C3CACC"/>
<path fill-rule="evenodd" clip-rule="evenodd" d="M20.2192 14.1914C19.6375 14.1914 19.166 14.6735 19.166 15.2683V20.1145H21.2723V15.2683C21.2723 14.6735 20.8008 14.1914 20.2192 14.1914Z" fill="#C3CACC"/>
</svg>
