<svg class="location" width="27" height="27" viewBox="0 0 27 27" fill="none" xmlns="http://www.w3.org/2000/svg">
<g clip-path="url(#clip0_101_263)">
<path d="M13.1163 0.00687197C7.75201 0.195093 3.2956 4.38025 2.78076 9.7224C2.67558 10.7908 2.73647 11.8261 2.92469 12.817C2.92469 12.817 2.9413 12.9332 2.99666 13.1547C3.16274 13.8965 3.41185 14.6162 3.72186 15.2915C4.80137 17.8491 7.29807 22.1284 12.9004 26.7841C13.2436 27.072 13.7474 27.072 14.0962 26.7841C19.6985 22.1339 22.1952 17.8547 23.2803 15.286C23.5958 14.6106 23.8394 13.8965 24.0055 13.1491C24.0553 12.9332 24.0774 12.8114 24.0774 12.8114C24.2048 12.1471 24.2712 11.4662 24.2712 10.7687C24.2712 4.69026 19.239 -0.209029 13.1163 0.00687197ZM13.4983 16.1275C10.6085 16.1275 8.26685 13.7858 8.26685 10.896C8.26685 8.00627 10.6085 5.66458 13.4983 5.66458C16.388 5.66458 18.7297 8.00627 18.7297 10.896C18.7297 13.7858 16.388 16.1275 13.4983 16.1275Z" fill="white"/>
</g>
<defs>
<clipPath id="clip0_101_263">
<rect width="27" height="27" fill="white"/>
</clipPath>
</defs>
</svg>
